<svg width="24" height="24" viewBox="0 0 24 24" fill="none" xmlns="http://www.w3.org/2000/svg">
<path d="M13.41 19.5009C12.9958 19.5009 12.66 19.8367 12.66 20.2509C12.66 20.6651 12.9958 21.0009 13.41 21.0009H19.41C19.8242 21.0009 20.16 20.6651 20.16 20.2509C20.16 19.8367 19.8242 19.5009 19.41 19.5009H13.41Z" fill="#2D264B"/>
<path d="M14.2041 4.57541L14.2941 4.62741C15.0723 5.07662 15.7211 5.45121 16.1962 5.81786C16.6977 6.20485 17.0957 6.64905 17.2625 7.27123C17.4292 7.89341 17.3066 8.47711 17.0658 9.063C16.8986 9.46966 16.6529 9.92665 16.3567 10.4479L15.7214 10.0703L15.7132 10.0655L8.78791 6.06719L8.14026 5.68548C8.44035 5.17439 8.71074 4.73786 8.97693 4.39291C9.36392 3.89143 9.80812 3.4934 10.4303 3.32669C11.0525 3.15997 11.6362 3.28258 12.2221 3.52338C12.7771 3.75151 13.426 4.12615 14.2041 4.57541Z" fill="#2D264B"/>
<path d="M7.38884 6.98375L3.91087 13.0077C3.61308 13.5225 3.37762 13.9295 3.29039 14.3925C3.20315 14.8555 3.27434 15.3204 3.36437 15.9082L3.38862 16.0671C3.55481 17.1585 3.69179 18.058 3.89839 18.7402C4.11446 19.4536 4.44662 20.0712 5.09989 20.4483C5.75316 20.8255 6.45402 20.8044 7.17991 20.6348C7.87398 20.4726 8.72151 20.1415 9.74974 19.7397L9.89949 19.6813C10.4536 19.4653 10.8918 19.2945 11.2491 18.9875C11.6065 18.6804 11.8413 18.273 12.1382 17.7577L15.6079 11.7478L14.9591 11.3622L8.02918 7.36118L7.38884 6.98375Z" fill="#2D264B"/>
</svg>
