<?xml version="1.0"?><svg xmlns="http://www.w3.org/2000/svg"  viewBox="0 0 24 24" width="50px" height="50px">    <path d="M12,2C6.486,2,2,6.486,2,12s4.486,10,10,10s10-4.486,10-10S17.514,2,12,2z M16,8.5c0.828,0,1.5,0.672,1.5,1.5 c0,0.828-0.672,1.5-1.5,1.5s-1.5-0.672-1.5-1.5C14.5,9.172,15.172,8.5,16,8.5z M8,8.5c0.828,0,1.5,0.672,1.5,1.5 c0,0.828-0.672,1.5-1.5,1.5S6.5,10.828,6.5,10C6.5,9.172,7.172,8.5,8,8.5z M15.42,16.876c-2.092-1.115-4.749-1.115-6.841,0 C8.14,17.11,7.597,16.98,7.308,16.574l0,0c-0.352-0.493-0.19-1.187,0.344-1.475c1.322-0.712,2.805-1.084,4.348-1.084 s3.027,0.372,4.348,1.084c0.534,0.287,0.696,0.982,0.344,1.475v0C16.403,16.98,15.86,17.11,15.42,16.876z"/></svg>