<svg width="15" height="16" viewBox="0 0 15 16" fill="none" xmlns="http://www.w3.org/2000/svg">
<path d="M10.9734 9.51007C10.8192 9.65954 10.7483 9.8757 10.7834 10.0877L11.3128 13.0176C11.3575 13.2659 11.2527 13.5172 11.0449 13.6607C10.8412 13.8096 10.5702 13.8274 10.3481 13.7083L7.71065 12.3327C7.61895 12.2839 7.51712 12.2577 7.4129 12.2547H7.25152C7.19555 12.2631 7.14076 12.2809 7.09074 12.3083L4.45268 13.6905C4.32226 13.756 4.17458 13.7792 4.02987 13.756C3.67734 13.6893 3.44211 13.3534 3.49988 12.9991L4.02987 10.0692C4.06501 9.85546 3.99414 9.6381 3.83991 9.48625L1.68956 7.402C1.50972 7.22752 1.44719 6.9655 1.52937 6.72909C1.60917 6.49327 1.81283 6.32117 2.05877 6.28246L5.0184 5.85311C5.2435 5.82988 5.44121 5.69292 5.54244 5.49045L6.84658 2.81665C6.87755 2.7571 6.91745 2.70232 6.96568 2.65587L7.01928 2.61418C7.04727 2.58322 7.07942 2.55761 7.11515 2.53677L7.18006 2.51295L7.2813 2.47126L7.532 2.47126C7.75591 2.49449 7.95302 2.62848 8.05604 2.82856L9.37746 5.49045C9.47274 5.68517 9.65794 5.82035 9.87172 5.85311L12.8314 6.28246C13.0815 6.31819 13.2905 6.49089 13.3733 6.72909C13.4513 6.96788 13.384 7.2299 13.2006 7.402L10.9734 9.51007Z" fill="#F2B90D"/>
</svg>
